<svg xmlns="http://www.w3.org/2000/svg" xmlns:xlink="http://www.w3.org/1999/xlink" id="Capa_1" x="0px" y="0px" viewBox="0 0 100 100" style="enable-background:new 0 0 100 100;" xml:space="preserve"><style type="text/css">	.st0{fill:#FCDE8D;}	.st1{fill:#2F7058;}	.st2{fill:#CB3433;}</style><g>	<path class="st0" d="M66.85,67.43c0.08,0.08,0.17,0.16,0.25,0.23c0.05,0.06,0.1,0.12,0.15,0.17c0.08,0.08,0.17,0.16,0.25,0.23  c0.05,0.06,0.1,0.12,0.15,0.17c0.88,0.89,2.12,1.29,3.49,1.12c0.99-0.12,1.92-0.6,2.89-1.51c0.7,0.48,1.78,0.91,3.34,0.72  c0.92-0.11,1.8-0.54,2.66-1.29c0.67,0.42,1.66,0.76,3.03,0.59c1.91-0.23,3.58-1.75,5.77-5.23c0.53-0.84,1.29-2.22,1.91-4.07  c0.32-0.75,0.33-1.59,0.01-2.32c-0.18-0.43-0.47-0.8-0.82-1.09c-0.12-0.15-0.26-0.28-0.4-0.4c-0.31-0.38-0.72-0.68-1.19-0.85  l0.03-0.59c0.02-0.43-0.05-1.35-0.95-2.08c-0.11-0.14-0.24-0.27-0.4-0.4c-0.27-0.34-0.68-0.67-1.29-0.92  c-0.27-0.12-2.35-0.94-3.94-0.24c-0.6-0.23-1.27-0.31-2-0.22c-0.56,0.07-1.09,0.22-1.6,0.45c0.54-1.45,1.12-2.98,1.12-2.98  c0.05-0.98-0.42-1.65-0.97-2.12c-0.12-0.15-0.26-0.28-0.4-0.4c-0.57-0.69-1.41-1.04-1.78-1.2c-1.91-0.8-3.35-0.7-4.29,0.32  c-0.37,0.41-1.47,2.82-2.63,5.79c-0.08-1.68-0.56-3.92-2.15-6.15c0.56-0.57,1.05-1.33,1.38-2.34c0.93-0.86,1.66-2.14,1.9-3.91  c0.09-0.68,0.12-1.36,0.09-2.03c0.46-0.29,0.87-0.66,1.22-1.09c0.87-1.04,2.52-3.85,0.06-8.14c0.63-1.48,0.74-3.05,0.58-4.36  c0.13-0.62,0.17-1.34,0.05-2.16c-0.08-1.06-0.47-4.16-2.48-6.63c-0.03-0.03-0.05-0.07-0.08-0.1c-0.22-0.63-0.49-1.13-0.68-1.47  l-0.06-0.11c-0.01-0.01-0.02-0.03-0.02-0.04c0.2-2.83-1.31-4.38-2.3-5.08l-0.04-0.03c-0.46-0.32-1.33-0.8-2.48-0.94  c-0.52-0.84-1.26-1.6-2.37-2.12c-1.26-0.59-2.66-0.68-3.96-0.28c-0.73-0.74-1.63-1.32-2.75-1.58c-0.71-0.16-1.43-0.19-2.13-0.08  c-1.66-0.9-3.68-0.86-5.31,0.09l-0.21,0.13c-0.68,0.44-1.24,1.01-1.65,1.68c-0.01,0-0.01,0-0.02,0c-0.96,0-1.93,0.26-2.82,0.79  c-1.08,0.65-1.86,1.57-2.3,2.69c-0.72,0.24-1.43,0.63-2.1,1.23c-1.15,1.04-1.82,2.47-1.89,4.02l-0.05,1.26l0.34,0.81l0.18,0.43  c0.87,1.93,1.15,2.38,1.28,2.6l-0.03-0.05l0.02,0.03c0.29,0.52,0.95,1.69,2.39,3.18c-0.28,0.59-0.5,1.22-0.66,1.88  c-0.01,0.06-0.03,0.11-0.04,0.17c-1.41,1.33-2.45,3-3.03,4.88l0,0.01c-1.53,1.47-3.58,4.02-4.05,7.41  c-0.24,0.2-0.47,0.42-0.69,0.67c-0.49,0.57-2.96,3.59-3.47,7.2c-0.19,1.35-0.16,2.87,0,4.31c-7.41,1.29-13.36,9.02-14.28,12.17  c-0.7,2.41-0.27,4.68,1.18,6.23c0.11,0.12,0.22,0.23,0.34,0.33c0.02,0.02,0.04,0.05,0.06,0.07c0.11,0.12,0.22,0.23,0.34,0.33  c0.02,0.02,0.04,0.05,0.06,0.07c0.15,0.16,0.31,0.31,0.47,0.44c-0.19,1.14-0.14,2.57,0.52,3.76c-2.98,2.84-4.2,2.67-4.21,2.67  c0,0-0.02-0.01-0.05-0.04l-2.82-2.68l-1.09,3.73c-0.23,0.78-1.26,4.79,0.87,7.3c0.14,0.16,0.29,0.32,0.48,0.48  c0.12,0.14,0.25,0.27,0.4,0.4c0.71,0.8,1.94,1.65,3.96,1.65c0.31,0,0.63-0.02,0.98-0.06c1.06-0.13,3.81-0.47,11.41-11.18  c-0.1,1.91-0.08,3.41,0.06,4.54l0.01,0.04c0.07,0.5,0.31,1.21,1.05,1.83c0.11,0.14,0.25,0.27,0.4,0.4  c0.16,0.19,0.35,0.37,0.58,0.54c0.49,0.36,1.13,0.64,1.84,0.83c-0.27,0.85-0.42,1.65-0.46,2.3l0,0.07  c-0.04,0.77-0.14,2.56,1.18,3.8c0.04,0.04,0.09,0.08,0.13,0.12c0.08,0.1,0.17,0.19,0.27,0.29c0.04,0.04,0.09,0.08,0.13,0.12  c0.08,0.1,0.17,0.19,0.27,0.29c0.48,0.45,1.29,0.95,2.5,0.95c0.19,0,0.38-0.01,0.59-0.04c0.58-0.07,1.14-0.29,1.66-0.65  c0.55,0.22,1.17,0.3,1.82,0.22c0.67-0.08,1.28-0.35,1.9-0.83c0.57,0.27,1.33,0.45,2.29,0.33c0.07-0.01,0.13-0.02,0.19-0.03  c-1.14,2.78-1.58,6.69,0.55,9.52c0.22,0.29,0.49,0.6,0.8,0.89c0.12,0.14,0.26,0.27,0.4,0.4c1.06,1.17,2.84,2.29,5.76,2.29  c0.49,0,1.01-0.03,1.57-0.1c3.74-0.46,7.77-2.64,9.74-6.5c0.55,0.24,1.17,0.37,1.84,0.37c0.23,0,0.47-0.02,0.71-0.05  c1-0.12,1.92-0.58,2.89-1.48c0.69,0.5,1.75,0.94,3.27,0.73c1.6-0.2,3.04-1.29,4.73-3.65c0.03,0.04,0.05,0.07,0.08,0.1  c0.14,0.19,0.33,0.41,0.58,0.62c0.11,0.13,0.25,0.27,0.4,0.4c0.61,0.7,1.82,1.61,3.93,1.35c4.11-0.5,7.24-8.17,7.66-9.25  c0.32-0.72,0.35-1.54,0.08-2.26c-0.18-0.47-0.48-0.89-0.87-1.2c-0.12-0.15-0.26-0.28-0.4-0.4c-0.3-0.37-0.7-0.67-1.15-0.85  l-0.15-0.05l0.15-0.53c0.05-0.91-0.34-1.77-1.05-2.36c-0.12-0.15-0.25-0.28-0.4-0.4c-0.13-0.16-0.28-0.31-0.45-0.45  c-0.56-0.45-1.29-0.69-2.05-0.8c-0.13-0.27-0.32-0.55-0.61-0.82c-0.04-0.04-0.09-0.08-0.15-0.13c-0.08-0.09-0.16-0.19-0.26-0.28  c-0.04-0.04-0.09-0.08-0.15-0.13c-0.08-0.09-0.16-0.19-0.26-0.28c-0.7-0.65-2.38-1.47-3.72-1.3c-1.6,0.2-2.25,1.74-2.68,2.75  c-0.27,0.63-0.52,1.33-0.69,1.91c-0.6-0.24-3.3-1.17-4.72,0.48l0.02,0.02c-0.16,0.21-0.34,0.49-0.51,0.81  c-0.25-0.2-0.56-0.38-0.94-0.54c-0.05-0.02-0.12-0.05-0.21-0.08c0.29-1.05,0.38-2.16,0.25-3.2c-0.17-1.36-0.76-2.78-1.9-3.8  c-0.12-0.13-0.24-0.26-0.38-0.38c0.32-0.34,0.63-0.71,0.92-1.11C66.69,67.25,66.77,67.34,66.85,67.43z M37.18,73.34  C37.18,73.34,37.18,73.34,37.18,73.34C37.18,73.34,37.18,73.34,37.18,73.34C37.18,73.34,37.18,73.34,37.18,73.34z"></path>	<g>		<g>			<path class="st1" d="M39.7,39.51c-0.02-0.01-0.03,0-0.05,0.01c-0.03,0.04-3.17,3.79-3.78,4.1c-0.06,0.03-0.09,0.01-0.11,0    c-0.35-0.28-0.15-3.12,0.8-7.23c0-0.02,0-0.04-0.02-0.04c-0.02-0.01-0.04,0-0.05,0.01c-0.02,0.02-1.91,2.25-2.22,4.45    c-0.31,2.15,0.29,5.03,0.64,5.72c0.02,0.04,0.06,0.09,0.15,0.09c0.02,0,0.04,0,0.06-0.01c0.88-0.17,4.32-3.89,4.61-7.06    C39.73,39.54,39.72,39.52,39.7,39.51z"></path>			<path class="st1" d="M38.62,35.61c0.77,0,3.33-0.21,5.19-2.87c0.01-0.01,0.01-0.03,0-0.05c-0.01-0.01-0.03-0.02-0.05-0.01    c-0.97,0.44-3.53,1.58-3.78,1.58c-0.18-0.2,1.21-3.91,2.06-4.78c0.01-0.01,0.01-0.04,0-0.05c-0.01-0.02-0.04-0.02-0.05-0.01    c-0.04,0.02-3.79,2.55-3.64,6.15c0,0.02,0.02,0.04,0.04,0.04C38.4,35.61,38.48,35.61,38.62,35.61z"></path>			<path class="st1" d="M43,46.19c-0.11,0.01-0.25,0.27-0.53,0.81c-0.38,0.74-0.91,1.75-1.32,1.66c-0.48-0.1-0.43-1.7-0.4-2.75    c0.01-0.49,0.03-0.88-0.02-1.02c-0.01-0.03-0.03-0.04-0.07-0.04c-0.19,0.03-1.12,1.24-1.14,2.32c-0.01,0.36-0.06,3.54,0.7,4.15    c0.06,0.05,0.13,0.07,0.21,0.07c0.03,0,0.05,0,0.08-0.01c0.66-0.13,1.66-1.79,2.06-2.5c0.22-0.38,0.73-2.36,0.5-2.65    C43.06,46.2,43.03,46.19,43,46.19z"></path>			<path class="st1" d="M59.59,45.53c-0.02,0.01-0.02,0.03-0.02,0.05c0.01,0.03,0.88,2.83,0.63,3.7c-0.02,0.05-0.05,0.09-0.11,0.11    c-0.81,0.32-4.94-2.15-4.98-2.17c-0.02-0.01-0.03-0.01-0.05,0c-0.01,0.01-0.02,0.03-0.01,0.05c0.02,0.04,1.81,3.7,6.41,3.72h0    c0.02,0,0.03-0.01,0.04-0.03c0.01-0.03,0.69-2.82-1.87-5.42C59.62,45.52,59.6,45.52,59.59,45.53z"></path>			<path class="st1" d="M56.99,45.63c0.01,0,0.02,0,0.02-0.01c0.01-0.01,0.01-0.02,0.01-0.03c0-0.02,0.18-1.99-0.73-3.07    c-0.03-0.02-0.06-0.01-0.07-0.01c-0.06,0.03-0.05,0.14-0.04,0.47c0.02,0.4,0.05,1.01-0.15,1.19c-0.34,0.32-1.19,0.07-2.75-0.55    c-0.01-0.01-0.03,0-0.04,0.01c-0.01,0.01-0.02,0.02-0.01,0.04C53.26,43.73,53.56,45.15,56.99,45.63    C56.99,45.63,56.99,45.63,56.99,45.63z"></path>			<path class="st1" d="M49.4,46.8c0.01,0,0.02,0,0.03,0c0.01,0,0.02-0.01,0.02-0.02c0.01-0.02,0.65-1.89,0.03-3.15    c-0.02-0.03-0.05-0.03-0.06-0.02c-0.06,0.02-0.09,0.13-0.15,0.44c-0.08,0.39-0.19,0.99-0.43,1.13c-0.4,0.23-1.17-0.22-2.54-1.19    c-0.01-0.01-0.03-0.01-0.04,0c-0.01,0.01-0.02,0.02-0.02,0.03C46.23,44.07,46.18,45.52,49.4,46.8C49.4,46.8,49.4,46.8,49.4,46.8z    "></path>			<path class="st1" d="M53.8,42.28c0,0,0.01,0,0.01,0c0.02,0,0.03-0.01,0.04-0.02c0.01-0.02,0.7-1.62-0.17-3.97    c0-0.01-0.01-0.01-0.01-0.02c-0.01-0.01-0.03-0.03-0.05-0.04c-0.07-0.07-0.17-0.17-0.27-0.12c-0.13,0.06-0.3,0.34-0.23,2.17    c0,0.04-0.03,0.13-0.16,0.19c-0.23,0.1-0.96,0.13-2.81-1.66c-0.01-0.01-0.03-0.01-0.05-0.01c-0.02,0.01-0.02,0.02-0.02,0.04    C50.09,38.86,50.55,41.32,53.8,42.28z"></path>			<path class="st1" d="M48.27,41.49c0.32-0.4,0.55-1.47,0.17-3.18c-0.04-0.14-0.13-0.38-0.25-0.38c0,0-0.01,0-0.01,0    c-0.08,0.01-0.2,0.11-0.25,0.89c-0.08,1.16-0.35,1.41-0.54,1.5c-0.08,0.03-0.6-0.27-0.94-0.47c-0.59-0.35-0.84-0.49-0.93-0.43    c-0.01,0.01-0.03,0.03-0.03,0.07c0,0.03,0.01,0.05,0.01,0.07c-0.01,0.01-0.01,0.02-0.01,0.03c0,0.02,0.31,1.93,2.39,2.12    C48.01,41.71,48.15,41.63,48.27,41.49z"></path>			<path class="st1" d="M44.74,39.4c-0.01-0.04-0.03-0.09-0.08-0.1c0,0-0.01,0-0.01,0c-0.07,0-0.17,0.1-0.68,1.02    c-0.69,1.24-1.17,1.67-1.25,1.68c-0.14-0.06-0.74-1.49-0.6-2.17c0.03-0.16,0.19-0.97-0.01-1.06c-0.08-0.04-0.16,0.06-0.19,0.1    c-0.07,0.05-0.74,0.65-0.55,2.51c0.17,1.64,0.43,2.69,0.68,2.8c0.02,0.01,0.03,0.01,0.06,0.01c0.06,0,0.16-0.03,0.26-0.07    c0.21-0.09,1.27-0.65,1.85-2.44c0.63-1.91,0.56-2.11,0.52-2.25L44.74,39.4z"></path>			<path class="st1" d="M45.97,38.28c0.02,0,0.05-0.01,0.07-0.02c0.33-0.13,1.09-1.02,1.28-1.9c0.1-0.46,0.31-1.54,0.17-1.63    c-0.01-0.01-0.04-0.02-0.07,0c-0.04,0.03-0.11,0.13-0.24,0.35c-0.23,0.38-0.62,1.02-0.94,1.17c-0.02,0.01-0.05,0.01-0.08,0    c-0.2-0.08-0.43-0.67-0.62-1.14c-0.22-0.55-0.34-0.84-0.47-0.84c0,0,0,0-0.01,0c-0.08,0.01-0.12,0.12-0.14,0.2l0.04,0.01    l-0.04-0.01c-0.07,0.28-0.63,2.74,0.98,3.8C45.92,38.27,45.94,38.28,45.97,38.28z"></path>			<path class="st1" d="M42.83,28.32c0.56,0,1.39-0.16,1.73-0.33c0.49-0.25,2.26-1.52,2.32-1.85c0.01-0.06-0.01-0.09-0.03-0.1    c-0.08-0.06-0.29,0.05-0.64,0.25c-0.23,0.13-0.46,0.26-0.62,0.3c-0.09,0.02-0.2,0.06-0.32,0.1c-0.38,0.13-0.9,0.31-1.27,0.2    c0.09-0.2,0.53-1.1,1.1-1.55c0.7-0.56,1-0.83,0.94-0.97c-0.03-0.08-0.16-0.08-0.25-0.07c0,0-0.01,0-0.01,0    c-0.03,0.01-2.61,0.86-3.51,3.8c0,0,0,0.01,0,0.01c0,0.04,0.01,0.09,0.08,0.13C42.44,28.29,42.62,28.32,42.83,28.32z"></path>			<path class="st1" d="M45.47,22.76c0.01,0,0.02,0,0.02-0.01c0.03-0.02,2.85-2.21,6.44-2.39c0.02,0,0.03-0.01,0.04-0.03    c0-0.02,0-0.03-0.02-0.04c-0.03-0.02-0.72-0.43-2.48-0.11c-0.28,0.05-0.4,0.05-0.44,0.05c0.22-0.19,2.16-0.87,2.46-0.9    c0.04,0,0.05-0.03,0.06-0.04c0-0.04-0.03-0.05-0.16-0.07c-0.49-0.07-1.72-0.09-2.92,0.3c-1.62,0.53-2.64,1.61-3.03,3.19    c0,0.02,0,0.03,0.02,0.04C45.45,22.76,45.46,22.76,45.47,22.76z"></path>			<path class="st1" d="M52.4,33.76c0.04,0,0.08-0.01,0.1-0.03c0.13-0.09,0.15-0.37,0.04-0.84c-0.36-1.56-0.93-2.72-1.69-3.47    c-1-0.99-3.28-2.54-4.72-1.38c0,0,0,0,0,0c-0.02,0.02-0.46,0.47-0.43,0.95c0,0.04,0,0.08,0,0.13c0.01,0.58,0.04,1.79,2.1,2.6    c0.78,0.3,1.24,0.41,1.61,0.5c0.69,0.16,1.1,0.25,2.76,1.45C52.27,33.74,52.34,33.76,52.4,33.76z M51.19,31.09    c-0.05,0.06-0.14,0.08-0.24,0.08c-0.16,0-0.37-0.05-0.58-0.11c-0.08-0.02-0.15-0.04-0.22-0.05c-0.3-0.07-0.65-0.46-0.95-0.81    c-0.2-0.22-0.39-0.44-0.52-0.52c-0.23-0.14-0.57-0.15-0.97-0.16c-0.2-0.01-0.42-0.01-0.66-0.04c-0.23-0.02-0.39-0.11-0.48-0.25    c-0.15-0.24-0.06-0.58,0.01-0.81c0.11-0.35,0.88-0.2,0.91-0.2c0,0,0,0,0,0c2.69,0.72,3.47,1.95,3.67,2.44    C51.26,30.88,51.26,31.01,51.19,31.09z"></path>			<path class="st1" d="M58.64,29.83c-0.22,0.08-0.38,0.23-0.48,0.44c-0.16,0.36-0.12,0.86,0.12,1.46c0.53,1.32,1.64,3.63,3.16,4.34    c-0.03,0.04-0.09,0.1-0.2,0.12c-0.28,0.05-0.86-0.13-2.01-1.34c-1.51-1.59-1.51-2.08-1.51-2.29c0-0.07,0-0.12-0.05-0.16    c-0.05-0.05-0.13-0.05-0.19,0c-0.19,0.16-0.23,0.82,0.8,2.32c0.22,0.29,1.09,1.15,1.37,1.36c0.04,0.03,0.07,0.08,0.06,0.11    c0,0.03-0.03,0.04-0.05,0.05c-0.16,0.05-0.57-0.11-1.17-0.73c-1.21-1.24-1.91-2.44-2.07-3.56c0-0.02-0.02-0.03-0.04-0.03    c-0.02,0-0.04,0.01-0.04,0.03c0,0.02-0.44,1.63,0.36,3.46c-0.03,0.03-0.1,0.07-0.19,0.05c-0.17-0.04-0.49-0.35-0.78-1.89    c-0.25-1.35-0.08-2.08,0.02-2.48c0.05-0.19,0.07-0.3,0.01-0.37c-0.05-0.06-0.16-0.07-0.34-0.05c0,0,0,0,0,0    c-0.02,0-1.56,0.19-2.06,1.44c-0.61,1.5-0.11,3.54,1.48,6.05c1.92,3.03,2.88,3.95,4.27,4.13c0.05,0.01,0.11,0.01,0.16,0.01    c1.45,0,2.93-2.38,3.42-4.68c0.09,0.21,0.29,0.75,0.31,1.76c0,0.01,0,0.02,0.01,0.03c0.03,0.03,0.09,0.06,0.16,0.03    c0.23-0.1,0.34-0.78,0.33-2.04c-0.03-2.55-1.16-4.26-2.01-5.32C60.53,30.84,59.19,29.64,58.64,29.83z"></path>			<path class="st1" d="M62.18,30.94c-0.18,0.08-0.27,0.18-0.27,0.29c0,0.16,0.22,0.28,0.27,0.3c0.09,0.12,1.15,1.54,1.45,2.15    c0.32,0.66,0.75,2.21,0.76,2.65c0.01,0.27,0.14,0.57,0.31,0.58c0,0,0.01,0,0.01,0c0.16,0,0.27-0.25,0.34-0.74    c0.18-1.37-0.08-2.72-0.72-3.72C63.56,31.27,62.74,30.68,62.18,30.94z"></path>			<path class="st1" d="M64.89,29.53l-0.39-0.14c-0.99-0.36-2.11-0.76-2.71-0.87c-0.62-0.11-1.33-0.23-1.61,0.01    c-0.02,0.02-0.05,0.04-0.08,0.07c-0.23,0.19-0.55,0.45-0.5,0.66c0.03,0.1,0.13,0.17,0.33,0.21c0.04,0.02,0.58,0.22,0.67,0.45    c0.01,0.02,0.01,0.04,0.02,0.06c0.07,0.18,0.14,0.37,0.48,0.37c0.12,0,0.26-0.02,0.46-0.08c0.78-0.22,2.57-0.26,3.23-0.17    c0.35,0.05,0.72,0.02,0.75-0.13C65.58,29.85,65.37,29.7,64.89,29.53z"></path>			<path class="st1" d="M66.89,27.99c-1.08-1.7-1.35-1.74-1.54-1.63c0,0,0,0,0,0c-0.02,0.01-2.43,1.39-3.73,1.42    c-0.02,0-0.04,0.02-0.04,0.04c0,0.02,0.01,0.04,0.03,0.04c0.04,0,4,0.51,5.88,2.49c0.01,0.01,0.02,0.01,0.03,0.01h0    c0.01,0,0.02-0.01,0.03-0.01C67.58,30.32,68.01,29.76,66.89,27.99z"></path>			<path class="st1" d="M54.38,23.87c-1.02,0-1.46,0.6-1.48,0.63c-0.01,0.01-0.01,0.03,0,0.04c0,0.01,0.51,0.86,1.63,0.93    c0.05,0,0.09,0,0.14,0c1.02,0,1.42-0.69,1.43-0.7c0.01-0.01,0.01-0.02,0-0.04c0-0.01-0.37-0.79-1.52-0.87    C54.51,23.87,54.44,23.87,54.38,23.87z"></path>			<path class="st1" d="M49.02,23.77c-0.41,0.8-0.35,1.26-0.26,1.39c0.02,0.03,0.05,0.09,0.09,0.18c0.11,0.26,0.32,0.74,0.87,1.57    c0.75,1.13,2.17,2.15,2.19,2.16c0.02,0.01,0.04,0.01,0.05,0c0.01-0.01,0.02-0.03,0-0.05c-1.25-1.79-1.25-2.54-1.2-2.74    c0.36,0.47,0.78,1,1.87,1.91c0.5,0.42,1.09,0.59,1.59,0.66c-0.18,0-0.36,0-0.52-0.02c-0.2-0.02-0.61-0.01-0.63,0.14    c-0.01,0.06-0.03,0.23,1.26,0.5c0.32,0.07,0.62,0.1,0.9,0.1c1.13,0,1.95-0.46,2.48-0.77c0.12-0.07,0.23-0.13,0.33-0.18    c0.19-0.09,0.43-0.3,0.71-0.53c0.61-0.52,1.44-1.23,2.39-1.24c1.06-0.01,1.08-0.11,1.09-0.17c0.01-0.07-0.08-0.12-0.17-0.16    c-0.16-0.07-1.2-0.61-1.43-0.79c-0.22-0.17-0.35-0.27-0.44-0.25c-0.03,0.01-0.05,0.02-0.07,0.05c-0.05,0.08-0.21,0.33-0.76,0.87    c-0.39,0.39-1.08,0.65-1.43,0.77c0.82-0.66,1.02-1,1.14-1.21c0.02-0.04,0.05-0.08,0.07-0.11c0.1-0.15,0.17-0.52,0.05-0.61    c-0.08-0.06-0.19-0.01-0.33,0.16c-0.44,0.5-1.57,1.09-3.02,1.57c-1.14,0.38-1.94,0.26-2.27,0.17c0.98-0.16,1.65-0.84,1.67-1    c0-0.04-0.02-0.06-0.04-0.07c-0.04-0.02-0.11,0-0.24,0.04c-0.29,0.08-0.88,0.26-1.94,0.2c-1.43-0.08-2.2-1.55-2.22-1.88    c-0.01-0.3,1.24-1.74,2.99-2.15c1.3-0.3,2.04-0.06,2.33,0.08c-0.4-0.01-1.15,0.06-1.94,0.32c-0.34,0.11-0.49,0.21-0.48,0.31    c0.01,0.13,0.24,0.18,0.29,0.19c0,0,0.01,0,0.01,0c1.54-0.1,1.79-0.07,2.84,0.06l0.17,0.02c1.07,0.13,1.9,0.82,2.18,1.04    c0.03,0.02,0.05,0.04,0.07,0.06c0.08,0.06,0.26,0.16,0.34,0.08c0.07-0.07,0.09-0.28-0.61-1.28c-1.06-1.51-2.24-1.97-3.36-2.23    c-0.87-0.2-1.79-0.08-2.19-0.02c-0.03,0-0.05,0.01-0.07,0.01c0.07-0.04,0.18-0.09,0.27-0.13c0.06-0.02,0.16-0.05,0.28-0.08    c0.61-0.17,0.75-0.23,0.74-0.31c-0.01-0.05-0.06-0.08-0.35-0.08c-0.89,0-3.01,0.89-3.57,1.25    C50.21,21.91,49.42,22.98,49.02,23.77z"></path>		</g>		<path class="st2" d="M66.11,19.25c0.75,0.94,0.85,0.99,0.92,0.95c0.07-0.03,0.05-0.14,0.02-0.31c-0.02-0.1-0.03-0.2-0.04-0.3   c-0.02-0.62-0.3-2.49-1.29-3.72c-0.86-1.06-1.51-1.52-1.79-1.71c-0.05-0.04-0.09-0.06-0.12-0.09c0,0,0,0,0,0   c0.09-0.03,0.49,0.02,0.75,0.2c0.07,0.05,0.15,0.09,0.19,0.05c0.07-0.07-0.03-0.27-0.34-0.83l-0.06-0.12   c-0.09-0.17-0.89-1.68-0.71-2.66c0.08-0.44,0.08-0.59,0.01-0.64c-0.08-0.05-0.19,0.01-0.39,0.13c-0.05,0.03-0.11,0.07-0.18,0.1   c-0.29,0.16-1.71,0.99-2.38,2.19c-0.05-0.46-0.22-2.06-0.49-3.17c-0.16-0.66-0.45-1.78-0.65-1.87c-0.02-0.01-0.05-0.01-0.07,0   c-0.05,0.02-0.1,0.13-0.25,0.47c-0.18,0.41-0.45,1.02-0.74,1.36c-0.49,0.57-2.36,2.36-3.02,2.46c0.01-0.29,0.03-1.91-0.18-2.89   c-0.24-1.09-1-2.79-1.37-2.88C53.87,5.95,53.82,5.96,53.78,6c-0.12,0.1-0.1,0.36-0.08,0.64c0.01,0.14,0.02,0.26,0.01,0.37   c-0.03,0.37-0.45,2.05-0.55,2.25c-0.02,0.05-0.08,0.06-0.12,0.06c-0.19,0.01-0.66-0.2-1.18-1.04c-0.67-1.07-1.37-2.71-1.37-2.85   c0-0.01,0-0.03-0.02-0.04c-0.01-0.01-0.03-0.01-0.04,0c-0.01,0-0.01,0.02-0.02,0.05c0,0,0,0,0,0c0,0,0,0,0,0.01   c-0.06,0.3-0.14,1.81-0.13,2.05c0.01,0.18,0.01,0.51,0,0.87c-0.01,1-0.01,1.43,0.06,1.5c0.08,0.08,0.8,0.64,1.46,0.69   c-0.01,0.02-0.03,0.06-0.08,0.09c-0.15,0.11-0.61,0.22-1.97-0.22C47.76,9.78,46.42,8.66,46,8.07c-0.08-0.11-0.15-0.15-0.21-0.11   c-0.21,0.12-0.07,1.28,0.22,1.87c0.32,0.64,0.94,1.49,1.31,1.88c-0.43-0.18-1.46-0.56-2.62-0.62l-0.2-0.01   c-1.14-0.06-1.96-0.1-2.27,0.18c-0.08,0.08-0.13,0.17-0.13,0.29c0,0.01,0,0.01,0,0.02c0.03,0.07,0.74,1.64,0.98,2.03   c0.03,0.04,0.05,0.09,0.09,0.15c0.28,0.5,0.94,1.67,2.88,3.26c0.81,0.66,1.3,0.95,1.48,0.88c0.03-0.01,0.07-0.04,0.08-0.11   c0.03-0.18-0.21-0.56-0.33-0.65c-0.23-0.18-1.17-1.22-1.12-1.81c0.01-0.09,0.03-0.13,0.04-0.13c0,0,0,0,0.01,0   c0.08,0,0.29,0.31,0.45,0.54c0.16,0.24,0.33,0.48,0.47,0.62c0.06,0.05,0.12,0.12,0.2,0.2c0.43,0.44,1.15,1.18,2.35,1.35   c0.58,0.08,1.27,0.1,1.95,0.12c0.97,0.03,1.9,0.06,2.48,0.26c0.24,0.08,0.28,0.07,0.3,0.05c0.01-0.01,0.02-0.03,0.01-0.05   c-0.06-0.14-1.49-0.82-2.46-0.91c0.36-0.12,1.43-0.31,3.48,0.78c2.11,1.12,3.32,2.42,4.49,3.67c0.29,0.31,0.58,0.63,0.89,0.94   c0.12,0.12,0.23,0.23,0.33,0.34c1.12,1.16,1.59,1.64,3.17,1.64c0.21,0,0.44-0.01,0.69-0.02c0.75-0.05,1.3-0.35,1.64-0.89   c0.51-0.82,0.39-2.02,0.21-2.45l-0.04-0.1c-0.24-0.61-0.75-1.86-2.29-3.29c0,0,0,0,0,0C64.72,17.98,65.2,18.1,66.11,19.25z"></path>	</g>	<g>		<path class="st1" d="M19.79,67.48c-0.05,1.07,0.25,2.3,1.51,2.46c0.12-0.13,0.24-0.25,0.35-0.38   C20.27,69.58,19.83,68.52,19.79,67.48z"></path>		<path class="st1" d="M32.16,50.64c-3.71-0.52-11.63,7.16-11.42,11.78c0.24-4.65,7.81-11.88,11.42-11.38   c0.22,0.03,0.34,0.19,0.39,0.46C32.59,51,32.47,50.69,32.16,50.64z"></path>		<path class="st1" d="M27.61,66.49c0.1-0.01,0.19-0.02,0.28-0.03c1.42-2.14,2.73-4.26,3.83-6.12c0.03-0.18,0.05-0.36,0.08-0.54   C30.62,61.83,29.18,64.15,27.61,66.49z"></path>		<path class="st1" d="M30.65,68.25c-1.22-0.08-2.92,0.21-4.58,0.51c-4.05,5.84-8.44,11.16-10.63,11.42   c-2.86,0.35-3.6-1.45-3.66-3.22c-0.04,1.88,0.59,4,3.66,3.62c2.19-0.27,6.58-5.58,10.63-11.42c1.64-0.3,3.32-0.58,4.54-0.51   C30.62,68.51,30.64,68.38,30.65,68.25z"></path>		<path class="st1" d="M20.59,64.49c0.27-0.06,0.44-0.38,0.35-0.62c-0.01-0.03-0.02-0.05-0.02-0.08c-0.06,0.14-0.17,0.26-0.33,0.29   c-1.69,0.37-3.38-0.82-3.5-2.99C17.01,63.51,18.81,64.88,20.59,64.49z"></path>		<path class="st1" d="M34.32,69.79c0.01-4.71,0.44-10.89,1.75-16.82c0-0.03-0.03-0.08-0.06-0.13C34.71,58.85,34.3,65.1,34.32,69.79   z"></path>		<path class="st1" d="M34.88,77.29c-0.05,0.09-0.14,0.16-0.26,0.19c-1.63,0.25-4.14-0.29-4.25-1.05c-0.07-0.59-0.1-1.31-0.1-2.12   c-0.01,0.98,0.02,1.84,0.1,2.52c0.11,0.76,2.62,1.3,4.25,1.05c0.22-0.05,0.36-0.27,0.29-0.46C34.9,77.39,34.89,77.33,34.88,77.29z   "></path>	</g>	<g>		<path class="st1" d="M37.77,66.42C37.77,66.42,37.77,66.42,37.77,66.42c0.16-1.56,1.23-7.12,1.26-7.82c0-0.02-0.03-0.04-0.04-0.07   C38.76,60.17,37.59,66.28,37.77,66.42z"></path>		<path class="st1" d="M37.26,70.53c-1.6,0.2-2.17-0.52-2.22-1.86c-0.05,1.59,0.47,2.48,2.22,2.27c0.98-0.12,7.65-9.66,7.81-12.65   c0-0.07-0.02-0.14-0.03-0.22C44.64,61.24,38.22,70.41,37.26,70.53z"></path>	</g>	<path class="st1" d="M49.81,55.55c-0.1,0.23-1.59-0.17-1.93-0.52c-0.04,0.13-0.06,0.23-0.07,0.27c-0.04,0.36,1.88,0.92,2,0.65  c0-0.03,1.84-3.77,2.84-4.7c0.04-0.04-0.02-0.13-0.14-0.26C51.48,52.11,49.81,55.52,49.81,55.55z"></path>	<g>		<path class="st1" d="M56.58,57.5c0.28-0.03,0.42,0.04,0.48,0.18c0.1-0.37,0-0.65-0.48-0.59c-1.45,0.18-3.82,4.48-3.72,6.72   C53.03,61.49,55.21,57.66,56.58,57.5z"></path>		<path class="st1" d="M66.02,61.7c0.04-0.01,0.09-0.01,0.13-0.02c0.27-0.93,0.52-2.27,0.55-2.84c0.01-0.26,0.07-0.83,0.06-1.46   c-0.01,0.46-0.05,0.84-0.06,1.05C66.67,59.1,66.34,60.81,66.02,61.7z"></path>		<path class="st1" d="M64.68,56.05c-1.56,0.19-3.39,4.83-3.27,6.83c0.11-2.16,1.81-6.25,3.27-6.43c0.45-0.06,0.62,0.43,0.64,1.08   C65.35,56.69,65.22,55.98,64.68,56.05z"></path>		<path class="st1" d="M64.05,62.07c0.02-0.03,0.03-0.05,0.05-0.08c-0.02-0.09-0.04-0.19-0.05-0.29   C64.04,61.83,64.04,61.95,64.05,62.07z"></path>		<path class="st1" d="M47.21,64.77c0.11-2.11,1.91-6.82,2.17-7.12c0-0.05-0.05-0.1-0.13-0.16C48.71,58.61,47.07,63.12,47.21,64.77z   "></path>		<path class="st1" d="M56.8,60.66c-0.5,0.06-0.92-0.57-1.04-1.03c-0.18,0.31,0.34,1.52,1.04,1.44c0.81-0.1,1.76-1.65,1.66-3.03   C58.38,59.3,57.54,60.57,56.8,60.66z"></path>		<path class="st1" d="M71.64,61.89c0.22-3.34,4.63-14.76,4.92-15.09c0-0.05-0.05-0.11-0.12-0.17C75.62,48.4,71.46,59.4,71.64,61.89   z"></path>		<path class="st1" d="M68.42,61.99c-0.69,0.76-1.57,1.41-2.62,1.54c-0.17,0.02-0.32,0.01-0.46-0.02c-1.19,2.64-2.85,4.02-4.6,4.24   c-2.21,0.27-2.59-1.34-2.62-2.63c-0.03,1.32,0.17,3.34,2.62,3.04c1.75-0.21,3.41-1.59,4.6-4.24c0.15,0.03,0.29,0.04,0.46,0.02   c1.03-0.13,1.89-0.76,2.57-1.49C68.39,62.29,68.4,62.14,68.42,61.99z"></path>		<path class="st1" d="M88.15,57.29c-0.03,0.05-0.56,1.87-1.71,3.68c-2.21,3.52-3.37,4.06-4.06,4.15c-1.75,0.21-2.38-0.88-2.41-2.48   c-0.99,1.7-2.17,3.04-3.27,3.18c-2.25,0.28-2.59-1.4-2.6-2.7c-1.95,2.95-3,3.41-3.63,3.49c-1.5,0.18-2.11-0.86-2.17-2.55   c-0.02,1.93,0.56,3.15,2.17,2.95c0.62-0.08,1.67-0.53,3.63-3.49c0.01,1.3,0.36,2.98,2.6,2.7c1.11-0.14,2.28-1.48,3.27-3.18   c0.04,1.59,0.67,2.69,2.41,2.48c0.69-0.08,1.84-0.63,4.06-4.15c1.15-1.82,1.68-3.63,1.71-3.68c0.09-0.18,0.09-0.36,0.03-0.51   C88.17,57.22,88.16,57.25,88.15,57.29z"></path>		<path class="st1" d="M58.12,64.52c-1.38,1.97-3.32,4-5.48,4.27c-2.15,0.26-2.82-1.23-2.99-2.49c-1.86,2.76-2.88,3.21-3.49,3.28   c-1.73,0.21-2.37-0.84-2.41-2.42c-0.05,1.8,0.54,3.06,2.41,2.83c0.61-0.07,1.62-0.52,3.49-3.28c0.18,1.25,0.84,2.75,2.99,2.49   c2.16-0.27,4.09-2.29,5.48-4.26C58.11,64.8,58.11,64.65,58.12,64.52z"></path>		<path class="st1" d="M80.63,54.61c-1.56,0.19-3.37,4.41-3.24,6.2c0.12-1.95,1.79-5.61,3.24-5.79c0.4-0.05,0.58,0.25,0.61,0.73   C81.29,55.03,81.13,54.55,80.63,54.61z"></path>		<path class="st1" d="M83.43,60.28c0.11-2.1,1.91-6.79,2.19-7.1c0-0.05-0.06-0.1-0.14-0.16C84.94,54.13,83.29,58.63,83.43,60.28z"></path>	</g>	<g>		<path class="st1" d="M64.2,70.39c1.88,2.3,0.28,7.12-2.17,7.42c-0.6,0.07-1.06-0.09-1.4-0.35c0.33,0.45,0.92,0.86,1.81,0.75   C65.04,77.9,66.69,72.46,64.2,70.39z"></path>		<path class="st1" d="M54.38,86.1c0.06,0.32-0.26,0.68-0.6,0.67c-3.36-0.04-4.87,4.76-2.92,6.22c-1.3-1.78,0.23-5.85,3.32-5.81   c0.34,0.01,0.65-0.35,0.6-0.67c-0.12-0.65-0.45-1.2-0.95-1.6C54.11,85.24,54.3,85.64,54.38,86.1z"></path>		<path class="st1" d="M60.71,71.98c0.35-0.04,0.62,0.01,0.82,0.11c-0.2-0.38-0.58-0.6-1.23-0.52c-1.23,0.15-2.43,1.1-2.53,2.91   c-0.11,2.06,3.47,9.39,3.24,13.82c-0.27,5.18-4.62,8.31-8.85,8.83c-2.3,0.28-3.9-0.2-4.95-1.11c1.02,1.17,2.74,1.84,5.35,1.52   c4.23-0.52,8.58-3.65,8.85-8.83c0.23-4.43-3.35-11.76-3.24-13.82C58.28,73.08,59.48,72.13,60.71,71.98z"></path>	</g>	<g>		<path class="st1" d="M76.94,78.1c0.02,0.05,0.04,0.09,0.07,0.14c0.02-0.04,0.04-0.08,0.05-0.12   C77.02,78.12,76.98,78.11,76.94,78.1z"></path>		<path class="st1" d="M79.12,76.21c0.17-0.05,0.38-0.1,0.6-0.14c0.26-0.72,0.52-1.49,0.53-1.77c0-0.09-0.17-0.23-0.41-0.37   C79.81,74.31,79.42,75.4,79.12,76.21z"></path>		<path class="st1" d="M83.57,76.72c-0.36,0.37-3.3,8.19-1.75,8.1c-0.36-1.59,1.85-7.38,2.15-7.7c0.01-0.25-0.15-0.42-0.43-0.55   C83.56,76.62,83.57,76.67,83.57,76.72z"></path>		<path class="st1" d="M72.11,85.98c-0.37-1.59,1.83-7.36,2.14-7.69c0-0.1-0.19-0.21-0.46-0.32C73.28,78.84,70.61,86.03,72.11,85.98   z"></path>		<path class="st1" d="M79.92,78.27c0.07-0.01,0.15-0.02,0.22-0.03c0.07-0.17,0.14-0.34,0.21-0.5c-0.3,0.06-0.57,0.09-0.84,0.13   c-0.39,0.05-0.76,0.07-1.1,0.06c-0.39,1.03-0.94,2.35-2.15,4.78c-0.21,0.6-0.73,1.99-1.61,3.38c-2.21,3.52-3.37,4.04-4.06,4.12   c-0.68,0.09-1.18-0.02-1.55-0.28c0.37,0.54,1,0.82,1.96,0.69c0.69-0.08,1.84-0.6,4.06-4.12c0.88-1.39,1.4-2.78,1.61-3.38   c1.21-2.43,1.76-3.75,2.15-4.78C79.16,78.34,79.53,78.32,79.92,78.27z"></path>		<path class="st1" d="M86.27,80.84c-0.04-0.01-0.08-0.01-0.11-0.01c0.02,0.12,0,0.25-0.06,0.38c-0.83,2.3-3.6,7.56-5.77,7.83   c-0.67,0.08-1.16-0.04-1.53-0.3c0.37,0.54,0.98,0.82,1.94,0.71c2.17-0.27,4.94-5.53,5.77-7.83   C86.66,81.29,86.56,80.95,86.27,80.84z"></path>		<path class="st1" d="M65.94,86.74c-0.36-1.59,1.84-7.36,2.13-7.69c0-0.1-0.19-0.21-0.46-0.32C67.12,79.6,64.44,86.83,65.94,86.74z   "></path>		<path class="st1" d="M68.21,87.3c-2.05,3.13-3.12,3.58-3.76,3.66c-0.68,0.09-1.18-0.03-1.55-0.28c0.37,0.54,0.99,0.81,1.96,0.69   c0.6-0.07,1.58-0.48,3.39-3.1C68.21,87.96,68.19,87.64,68.21,87.3z"></path>	</g>	<g>		<path class="st1" d="M39.64,82.02c0.07-0.01,0.13-0.04,0.2-0.07c0.05-1.94,2.89-9.32,3.09-9.54c0-0.08-0.19-0.21-0.45-0.33   C42.05,72.9,38.53,82.15,39.64,82.02z"></path>		<path class="st1" d="M45.45,76.83c-0.03,0-0.05,0.01-0.05-0.01l-0.05,0.02c-0.6,0.07-1.48,1.29-1.95,2.52   c0.14,0.14,0.35,0.12,0.58,0c0.47-1.02,1.16-1.94,1.69-2.09C45.76,76.99,45.71,76.8,45.45,76.83z"></path>		<path class="st1" d="M43.11,80.61c-0.01-0.03-0.04-0.04-0.06-0.07c-0.11,0.66,0,1.17,0.44,1.31c-0.09-0.24-0.1-0.55-0.04-0.91   c0.01,0.03,0.04,0.04,0.06,0.07c1.06,1.01,4.4-3.11,3.11-4.34c-0.06-0.06-0.14-0.11-0.22-0.14   C47.11,77.99,44.11,81.55,43.11,80.61z"></path>		<path class="st1" d="M36.05,82.46C36.05,82.46,36.05,82.46,36.05,82.46c-0.15-1.05,1-3.79,2-3.96c-0.03-0.27-0.14-0.44-0.38-0.41   C36.41,78.24,34.88,82.6,36.05,82.46z"></path>		<path class="st1" d="M48.88,80.91c0.06-0.01,0.13-0.05,0.19-0.08c0.06-1.97,2.9-9.33,3.08-9.54c0-0.08-0.19-0.21-0.45-0.33   C51.24,71.92,47.77,81.05,48.88,80.91z"></path>		<path class="st1" d="M46.61,81.06c-0.88,1.35-2.21,2.92-3.73,3.11c-0.5,0.06-0.86-0.03-1.13-0.21c0.27,0.42,0.73,0.71,1.53,0.61   c1.29-0.16,2.44-1.31,3.3-2.48C46.56,81.78,46.57,81.44,46.61,81.06z"></path>		<path class="st1" d="M51.79,78.57c-0.08-0.03-0.16-0.02-0.24,0c-0.01,0.02-0.01,0.05-0.02,0.07c-0.02,0.05-0.35,1.17-1.07,2.32   c-1.39,2.2-2.11,2.53-2.52,2.58c-0.28,0.03-0.51,0-0.7-0.1c0.21,0.37,0.56,0.57,1.1,0.5c0.42-0.05,1.14-0.37,2.52-2.58   c0.72-1.15,1.05-2.27,1.07-2.32C52.04,78.85,51.97,78.64,51.79,78.57z"></path>		<path class="st1" d="M37.32,82.99c-0.63,1.13-1.39,2.02-2.12,2.11c-0.42,0.05-0.73-0.01-0.97-0.15c0.22,0.38,0.62,0.64,1.37,0.55   c0.62-0.08,1.27-0.74,1.84-1.64C37.37,83.62,37.33,83.33,37.32,82.99z"></path>		<path class="st1" d="M41,82.41c-1.23,1.9-1.92,2.21-2.31,2.26c-0.29,0.04-0.52-0.01-0.71-0.11c0.21,0.38,0.57,0.58,1.12,0.51   c0.37-0.05,0.99-0.33,2.07-1.9C41.07,82.92,41.02,82.65,41,82.41z"></path>		<path class="st1" d="M38.66,77.09c-0.02-0.01-0.04-0.01-0.06-0.02c0.01,0.02,0.03,0.04,0.04,0.07   C38.64,77.12,38.65,77.1,38.66,77.09z"></path>	</g>	<g>		<path class="st2" d="M36.07,52.16c-0.06-0.32-1.55-2.61-2.4-3.23c-0.32-0.33-0.66-0.54-0.97-0.58   c-7.87-1.11-14.63,8.04-15.38,10.56c-0.95,3.27,1.17,5.23,3.27,4.77c0.27-0.06,0.44-0.38,0.35-0.62   c-1.7-4.39,7.21-13.38,11.21-12.82c1.8,0.25-2.67,9-8.03,15.9c-1.56-0.06-2.92-0.34-3.69-0.95c-0.12-0.09-0.29-0.04-0.37,0.12   c-0.41,0.9-0.72,3.89,1.59,3.83c-3.69,4.1-7.4,6.71-9.52,4.69c-0.42,1.43-1.32,6.51,3.31,5.94c2.19-0.27,6.58-5.58,10.63-11.42   c1.65-0.3,3.36-0.59,4.58-0.51c-0.35,3.37-0.5,6.36-0.28,8.18c0.11,0.76,2.62,1.3,4.25,1.05c0.22-0.05,0.36-0.27,0.29-0.46   C34.19,74.43,33.7,62.87,36.07,52.16z M30.91,65.76c-0.98,0.1-2.12,0.23-3.3,0.33c1.57-2.34,3.01-4.67,4.19-6.69   C31.47,61.47,31.16,63.65,30.91,65.76z"></path>		<path class="st2" d="M42.26,55.82c-0.26,4.93-4.36,10.33-4.5,10.2c-0.19-0.15,1.22-7.42,1.26-8.23c0.02-0.33-2.02-1.08-2.57-0.46   c-0.08,1.51-1.1,6.51-1.41,10.14c-0.15,1.84,0.31,2.88,2.21,2.65c0.98-0.12,7.65-9.66,7.81-12.65   C45.13,56.09,42.96,55.03,42.26,55.82z"></path>		<path class="st2" d="M49.81,55.14c0-0.03,1.84-3.77,2.84-4.7c0.18-0.15-1.35-1.36-2.48-1.22c-0.76,0.07-2.31,4.93-2.36,5.26   C47.77,54.84,49.7,55.41,49.81,55.14z"></path>		<path class="st2" d="M87.92,56.11c-0.29-0.11-0.64,0.05-0.8,0.37c0,0-1.77,3.81-3.22,3.99c-1.62,0.2,1.36-7.71,1.72-8.11   c0.02-0.33-2.16-0.88-2.52-0.49c-0.03,0.03-0.3,0.61-0.69,1.51c-0.17-0.9-0.64-1.75-1.9-1.59c-2.51,0.31-4.78,3.94-5.81,7.12   c-0.62,1.15-1.75,2.96-2.72,3.08c-1.85,0.23,4.24-15.61,4.58-16.01c0.02-0.33-2.19-1.23-2.52-0.86   c-0.08,0.08-3.51,7.59-5.04,13.63c-0.14,0.3-1.08,2.32-2.76,2.52c-0.07,0.01-0.15,0.02-0.22,0.03c0.32-0.89,0.65-2.6,0.68-3.26   c0.04-0.83,0.51-4.56-2.05-4.25c-2.51,0.31-4.84,3.9-5.91,7.06c-0.79,1.35-2.41,3.63-4.45,3.88c-3.55,0.44,0.26-7.8,2.28-8.05   c1.28-0.16-0.13,2.01-0.79,2.1c-0.23,0.25,0.31,1.56,1.02,1.47c1.13-0.14,2.54-3.11,0.99-4.47c-0.35-0.33-0.81-0.48-1.37-0.41   c-2.62,0.32-5.25,3.93-6.33,7.06c-0.65,1.1-1.59,2.44-2.42,2.54c-1.62,0.2,1.36-7.74,1.7-8.13c0.02-0.33-2.16-0.86-2.49-0.49   c-0.13,0.14-6.51,13.54-0.72,12.83c0.61-0.07,1.62-0.52,3.49-3.28c0.18,1.25,0.84,2.75,2.99,2.49c2.17-0.27,4.1-2.3,5.48-4.27   c-0.05,1.3,0.05,3.54,2.62,3.22c1.75-0.21,3.41-1.59,4.6-4.24c0.15,0.03,0.29,0.04,0.46,0.02c1.05-0.13,1.93-0.79,2.62-1.54   c-0.41,2.86,0,4.87,2.04,4.62c0.62-0.08,1.67-0.53,3.63-3.49c0.01,1.3,0.36,2.98,2.6,2.7c1.11-0.14,2.28-1.48,3.27-3.18   c0.04,1.59,0.67,2.69,2.41,2.48c0.69-0.08,1.84-0.63,4.06-4.15c1.15-1.82,1.68-3.63,1.71-3.68C88.31,56.56,88.2,56.2,87.92,56.11z    M64.97,59.43c-0.9,0.36-1.03,1.5-0.87,2.16c-0.76,1.49-1.61,1.75-2.03,1.8c-1.9,0.23,0.59-7.49,2.61-7.74   C65.81,55.5,65.15,58.76,64.97,59.43z M78.04,61.2c-1.87,0.23,0.57-6.74,2.59-6.99C82.47,53.98,79.86,60.97,78.04,61.2z"></path>	</g>	<g>		<path class="st2" d="M59.78,75.76c-0.18,0.12-0.29,0.34-0.2,0.5c0.24,0.54,0.89,1.29,2.04,1.15c3.37-0.41,5.16-9.41-1.56-8.58   c-3.18,0.39-5.76,2.48-5.92,5.7c-0.1,1.84,0.72,3.98,1.48,6.34c2.9,8.69-0.96,11.81-3.33,12.1c-4.38,0.54-3.03-6.65,1.08-6.6   c0.34,0.01,0.65-0.35,0.6-0.67c-0.27-1.47-1.56-2.46-3.55-2.21c-5.39,0.66-8.93,14.52,1.34,13.25c4.23-0.52,8.58-3.65,8.85-8.83   c0.23-4.43-3.35-11.76-3.24-13.82c0.09-1.81,1.29-2.76,2.53-2.91C62.41,70.87,61,74.99,59.78,75.76z"></path>		<path class="st2" d="M85.46,80.03c-0.29-0.09-0.64,0.08-0.8,0.37c0,0.03-1.77,3.84-3.22,4.02c-1.63,0.2,1.36-7.74,1.72-8.11   c0.06-1.06-3.11-0.89-4.45-0.5c0.31-0.84,0.71-1.96,0.73-2.31c0.01-0.25-1.32-0.91-1.91-0.84c-0.34,0.04-1.25,2.35-1.5,3.38   c-0.18,0.7,0.08,1.74,0.62,1.67c-0.61,1.37-1.32,2.86-1.87,3.95c-0.25,0.56-0.47,1.01-0.63,1.33c-0.02,0.05-0.04,0.1-0.05,0.16   c-0.64,1.08-1.56,2.34-2.36,2.44c-1.65,0.2,1.33-7.71,1.7-8.1c0.02-0.33-2.16-0.88-2.49-0.49c-0.08,0.06-1.28,2.56-2.16,5.34   c-0.02,0-0.02,0-0.03,0.03c0,0-1.77,3.82-3.19,3.99c-1.62,0.2,1.36-7.71,1.7-8.1c0.02-0.33-2.16-0.89-2.49-0.49   c-0.13,0.12-6.51,13.54-0.72,12.81c0.64-0.08,1.72-0.54,3.76-3.66c-0.1,1.86,0.49,3.16,2.39,2.9c0.69-0.08,1.84-0.6,4.06-4.12   c0.88-1.39,1.4-2.78,1.61-3.38c1.21-2.43,1.76-3.75,2.15-4.78c0.34,0.01,0.71-0.01,1.1-0.06c0.27-0.03,0.54-0.07,0.84-0.13   c-1.53,3.54-4.61,11.86-0.03,11.3c2.17-0.27,4.94-5.53,5.77-7.83C85.85,80.48,85.75,80.14,85.46,80.03z"></path>	</g>	<path class="st2" d="M50.98,77.76c-0.18-0.07-0.4,0.03-0.5,0.23c0,0.02-1.11,2.4-2,2.51c-1.16,0.14,2.66-9.78,2.87-10.02  c0.01-0.2-1.37-0.77-1.58-0.54c-0.05,0.05-2.17,4.7-3.14,8.47c0,0,0,0,0,0c0,0.02-1.3,2.83-3.12,3.06c-0.8,0.1-1-0.52-0.86-1.35  c0.01,0.03,0.04,0.04,0.06,0.07c1.06,1.01,4.4-3.11,3.11-4.34c-0.25-0.24-0.66-0.28-0.95-0.24c-1.87,0.23-3.22,2.13-3.86,3.95  c-0.37,0.7-1.12,1.97-1.77,2.04c-1.14,0.14,2.65-9.76,2.88-10.01c0.01-0.2-1.38-0.78-1.6-0.54c-0.03,0.03-1.26,2.72-2.29,5.66  c-0.16-0.37-0.47-0.63-1.04-0.56c-2.08,0.26-3.89,4.15-4,6.22c-0.04,0.71-0.21,2.53,1.61,2.31c0.72-0.09,1.49-0.98,2.12-2.11  c0.02,1.11,0.4,1.8,1.37,1.68c0.39-0.05,1.08-0.36,2.31-2.26c0.06,0.81,0.41,1.94,1.88,1.76c1.52-0.19,2.85-1.76,3.73-3.11  c-0.16,1.57,0.15,2.63,1.32,2.49c0.42-0.05,1.14-0.37,2.52-2.58c0.72-1.15,1.05-2.27,1.07-2.32  C51.23,78.04,51.16,77.83,50.98,77.76z M44.96,76.44L45,76.41c0,0.02,0.01,0.01,0.05,0.01c1.03-0.13-1.3,3.24-2.05,2.54  C43.48,77.73,44.36,76.51,44.96,76.44z M37.63,78.67c-0.11,0.34-0.19,0.68-0.28,1c-0.4,1.13-1.12,2.31-1.7,2.38  c-1.17,0.14,0.36-4.22,1.62-4.38C37.64,77.63,37.72,78.06,37.63,78.67z"></path></g></svg>